<svg width="308" height="65" viewBox="0 0 308 65" fill="none" xmlns="http://www.w3.org/2000/svg">
<path d="M99.532 11.344V15.18H91.524V19.324H97.516V23.048H91.524V31H86.736V11.344H99.532ZM101.097 23.16C101.097 21.5547 101.395 20.1453 101.993 18.932C102.609 17.7187 103.439 16.7853 104.485 16.132C105.53 15.4787 106.697 15.152 107.985 15.152C109.086 15.152 110.047 15.376 110.869 15.824C111.709 16.272 112.353 16.86 112.801 17.588V15.376H117.589V31H112.801V28.788C112.334 29.516 111.681 30.104 110.841 30.552C110.019 31 109.058 31.224 107.957 31.224C106.687 31.224 105.53 30.8973 104.485 30.244C103.439 29.572 102.609 28.6293 101.993 27.416C101.395 26.184 101.097 24.7653 101.097 23.16ZM112.801 23.188C112.801 21.9933 112.465 21.0507 111.793 20.36C111.139 19.6693 110.337 19.324 109.385 19.324C108.433 19.324 107.621 19.6693 106.949 20.36C106.295 21.032 105.969 21.9653 105.969 23.16C105.969 24.3547 106.295 25.3067 106.949 26.016C107.621 26.7067 108.433 27.052 109.385 27.052C110.337 27.052 111.139 26.7067 111.793 26.016C112.465 25.3253 112.801 24.3827 112.801 23.188ZM127.408 31.224C126.046 31.224 124.832 30.9907 123.768 30.524C122.704 30.0573 121.864 29.4227 121.248 28.62C120.632 27.7987 120.287 26.884 120.212 25.876H124.944C125 26.4173 125.252 26.856 125.7 27.192C126.148 27.528 126.699 27.696 127.352 27.696C127.95 27.696 128.407 27.584 128.724 27.36C129.06 27.1173 129.228 26.8093 129.228 26.436C129.228 25.988 128.995 25.6613 128.528 25.456C128.062 25.232 127.306 24.9893 126.26 24.728C125.14 24.4667 124.207 24.196 123.46 23.916C122.714 23.6173 122.07 23.16 121.528 22.544C120.987 21.9093 120.716 21.06 120.716 19.996C120.716 19.1 120.959 18.288 121.444 17.56C121.948 16.8133 122.676 16.2253 123.628 15.796C124.599 15.3667 125.747 15.152 127.072 15.152C129.032 15.152 130.572 15.6373 131.692 16.608C132.831 17.5787 133.484 18.8667 133.652 20.472H129.228C129.154 19.9307 128.911 19.5013 128.5 19.184C128.108 18.8667 127.586 18.708 126.932 18.708C126.372 18.708 125.943 18.82 125.644 19.044C125.346 19.2493 125.196 19.5387 125.196 19.912C125.196 20.36 125.43 20.696 125.896 20.92C126.382 21.144 127.128 21.368 128.136 21.592C129.294 21.8907 130.236 22.1893 130.964 22.488C131.692 22.768 132.327 23.2347 132.868 23.888C133.428 24.5227 133.718 25.3813 133.736 26.464C133.736 27.3787 133.475 28.2 132.952 28.928C132.448 29.6373 131.711 30.1973 130.74 30.608C129.788 31.0187 128.678 31.224 127.408 31.224ZM145.374 26.94V31H142.938C141.202 31 139.848 30.58 138.878 29.74C137.907 28.8813 137.422 27.4907 137.422 25.568V19.352H135.518V15.376H137.422V11.568H142.21V15.376H145.346V19.352H142.21V25.624C142.21 26.0907 142.322 26.4267 142.546 26.632C142.77 26.8373 143.143 26.94 143.666 26.94H145.374ZM158.065 31L153.977 23.58H152.829V31H148.041V11.344H156.077C157.626 11.344 158.942 11.6147 160.025 12.156C161.126 12.6973 161.947 13.444 162.489 14.396C163.03 15.3293 163.301 16.3747 163.301 17.532C163.301 18.8387 162.927 20.0053 162.181 21.032C161.453 22.0587 160.37 22.7867 158.933 23.216L163.469 31H158.065ZM152.829 20.192H155.797C156.674 20.192 157.327 19.9773 157.757 19.548C158.205 19.1187 158.429 18.512 158.429 17.728C158.429 16.9813 158.205 16.3933 157.757 15.964C157.327 15.5347 156.674 15.32 155.797 15.32H152.829V20.192ZM181.034 22.936C181.034 23.384 181.006 23.8507 180.95 24.336H170.114C170.189 25.3067 170.497 26.0533 171.038 26.576C171.598 27.08 172.28 27.332 173.082 27.332C174.277 27.332 175.108 26.828 175.574 25.82H180.67C180.409 26.8467 179.933 27.7707 179.242 28.592C178.57 29.4133 177.721 30.0573 176.694 30.524C175.668 30.9907 174.52 31.224 173.25 31.224C171.72 31.224 170.357 30.8973 169.162 30.244C167.968 29.5907 167.034 28.6573 166.362 27.444C165.69 26.2307 165.354 24.812 165.354 23.188C165.354 21.564 165.681 20.1453 166.334 18.932C167.006 17.7187 167.94 16.7853 169.134 16.132C170.329 15.4787 171.701 15.152 173.25 15.152C174.762 15.152 176.106 15.4693 177.282 16.104C178.458 16.7387 179.373 17.644 180.026 18.82C180.698 19.996 181.034 21.368 181.034 22.936ZM176.134 21.676C176.134 20.8547 175.854 20.2013 175.294 19.716C174.734 19.2307 174.034 18.988 173.194 18.988C172.392 18.988 171.71 19.2213 171.15 19.688C170.609 20.1547 170.273 20.8173 170.142 21.676H176.134ZM189.916 31.224C188.554 31.224 187.34 30.9907 186.276 30.524C185.212 30.0573 184.372 29.4227 183.756 28.62C183.14 27.7987 182.795 26.884 182.72 25.876H187.452C187.508 26.4173 187.76 26.856 188.208 27.192C188.656 27.528 189.207 27.696 189.86 27.696C190.458 27.696 190.915 27.584 191.232 27.36C191.568 27.1173 191.736 26.8093 191.736 26.436C191.736 25.988 191.503 25.6613 191.036 25.456C190.57 25.232 189.814 24.9893 188.768 24.728C187.648 24.4667 186.715 24.196 185.968 23.916C185.222 23.6173 184.578 23.16 184.036 22.544C183.495 21.9093 183.224 21.06 183.224 19.996C183.224 19.1 183.467 18.288 183.952 17.56C184.456 16.8133 185.184 16.2253 186.136 15.796C187.107 15.3667 188.255 15.152 189.58 15.152C191.54 15.152 193.08 15.6373 194.2 16.608C195.339 17.5787 195.992 18.8667 196.16 20.472H191.736C191.662 19.9307 191.419 19.5013 191.008 19.184C190.616 18.8667 190.094 18.708 189.44 18.708C188.88 18.708 188.451 18.82 188.152 19.044C187.854 19.2493 187.704 19.5387 187.704 19.912C187.704 20.36 187.938 20.696 188.404 20.92C188.89 21.144 189.636 21.368 190.644 21.592C191.802 21.8907 192.744 22.1893 193.472 22.488C194.2 22.768 194.835 23.2347 195.376 23.888C195.936 24.5227 196.226 25.3813 196.244 26.464C196.244 27.3787 195.983 28.2 195.46 28.928C194.956 29.6373 194.219 30.1973 193.248 30.608C192.296 31.0187 191.186 31.224 189.916 31.224ZM207.882 26.94V31H205.446C203.71 31 202.356 30.58 201.386 29.74C200.415 28.8813 199.93 27.4907 199.93 25.568V19.352H198.026V15.376H199.93V11.568H204.718V15.376H207.854V19.352H204.718V25.624C204.718 26.0907 204.83 26.4267 205.054 26.632C205.278 26.8373 205.651 26.94 206.174 26.94H207.882ZM209.597 23.16C209.597 21.5547 209.895 20.1453 210.493 18.932C211.109 17.7187 211.939 16.7853 212.985 16.132C214.03 15.4787 215.197 15.152 216.485 15.152C217.586 15.152 218.547 15.376 219.369 15.824C220.209 16.272 220.853 16.86 221.301 17.588V15.376H226.089V31H221.301V28.788C220.834 29.516 220.181 30.104 219.341 30.552C218.519 31 217.558 31.224 216.457 31.224C215.187 31.224 214.03 30.8973 212.985 30.244C211.939 29.572 211.109 28.6293 210.493 27.416C209.895 26.184 209.597 24.7653 209.597 23.16ZM221.301 23.188C221.301 21.9933 220.965 21.0507 220.293 20.36C219.639 19.6693 218.837 19.324 217.885 19.324C216.933 19.324 216.121 19.6693 215.449 20.36C214.795 21.032 214.469 21.9653 214.469 23.16C214.469 24.3547 214.795 25.3067 215.449 26.016C216.121 26.7067 216.933 27.052 217.885 27.052C218.837 27.052 219.639 26.7067 220.293 26.016C220.965 25.3253 221.301 24.3827 221.301 23.188ZM244.98 15.376V31H240.192V28.872C239.707 29.5627 239.044 30.1227 238.204 30.552C237.383 30.9627 236.468 31.168 235.46 31.168C234.266 31.168 233.211 30.9067 232.296 30.384C231.382 29.8427 230.672 29.068 230.168 28.06C229.664 27.052 229.412 25.8667 229.412 24.504V15.376H234.172V23.86C234.172 24.9053 234.443 25.7173 234.984 26.296C235.526 26.8747 236.254 27.164 237.168 27.164C238.102 27.164 238.839 26.8747 239.38 26.296C239.922 25.7173 240.192 24.9053 240.192 23.86V15.376H244.98ZM253.208 17.98C253.768 17.1213 254.468 16.4493 255.308 15.964C256.148 15.46 257.081 15.208 258.108 15.208V20.276H256.792C255.597 20.276 254.701 20.5373 254.104 21.06C253.506 21.564 253.208 22.46 253.208 23.748V31H248.42V15.376H253.208V17.98ZM259.444 23.16C259.444 21.5547 259.743 20.1453 260.34 18.932C260.956 17.7187 261.787 16.7853 262.832 16.132C263.877 15.4787 265.044 15.152 266.332 15.152C267.433 15.152 268.395 15.376 269.216 15.824C270.056 16.272 270.7 16.86 271.148 17.588V15.376H275.936V31H271.148V28.788C270.681 29.516 270.028 30.104 269.188 30.552C268.367 31 267.405 31.224 266.304 31.224C265.035 31.224 263.877 30.8973 262.832 30.244C261.787 29.572 260.956 28.6293 260.34 27.416C259.743 26.184 259.444 24.7653 259.444 23.16ZM271.148 23.188C271.148 21.9933 270.812 21.0507 270.14 20.36C269.487 19.6693 268.684 19.324 267.732 19.324C266.78 19.324 265.968 19.6693 265.296 20.36C264.643 21.032 264.316 21.9653 264.316 23.16C264.316 24.3547 264.643 25.3067 265.296 26.016C265.968 26.7067 266.78 27.052 267.732 27.052C268.684 27.052 269.487 26.7067 270.14 26.016C270.812 25.3253 271.148 24.3827 271.148 23.188ZM288.92 15.208C290.749 15.208 292.205 15.8053 293.288 17C294.389 18.176 294.94 19.8 294.94 21.872V31H290.18V22.516C290.18 21.4707 289.909 20.6587 289.368 20.08C288.827 19.5013 288.099 19.212 287.184 19.212C286.269 19.212 285.541 19.5013 285 20.08C284.459 20.6587 284.188 21.4707 284.188 22.516V31H279.4V15.376H284.188V17.448C284.673 16.7573 285.327 16.216 286.148 15.824C286.969 15.4133 287.893 15.208 288.92 15.208ZM306.975 26.94V31H304.539C302.803 31 301.45 30.58 300.479 29.74C299.509 28.8813 299.023 27.4907 299.023 25.568V19.352H297.119V15.376H299.023V11.568H303.811V15.376H306.947V19.352H303.811V25.624C303.811 26.0907 303.923 26.4267 304.147 26.632C304.371 26.8373 304.745 26.94 305.267 26.94H306.975Z" fill="white"/>
<path d="M96.6529 55.2344C96.514 56.4151 96.074 57.3275 95.333 57.9715C94.5971 58.6104 93.6168 58.9299 92.3921 58.9299C91.0644 58.9299 89.9992 58.4571 89.1964 57.5115C88.3988 56.5659 88 55.3008 88 53.7163V52.6429C88 51.6053 88.1853 50.693 88.5558 49.9058C88.9314 49.1187 89.4614 48.5155 90.1459 48.0964C90.8303 47.6721 91.6227 47.46 92.5233 47.46C93.7172 47.46 94.6743 47.7923 95.3947 48.4567C96.1152 49.1161 96.5346 50.031 96.6529 51.2015H95.1632C95.0345 50.3122 94.7541 49.6681 94.3218 49.2694C93.8947 48.8708 93.2952 48.6714 92.5233 48.6714C91.5764 48.6714 90.8328 49.019 90.2925 49.7141C89.7573 50.4093 89.4898 51.3983 89.4898 52.6813V53.7623C89.4898 54.9737 89.7445 55.9372 90.2539 56.6528C90.7634 57.3684 91.4761 57.7262 92.3921 57.7262C93.2154 57.7262 93.8458 57.5422 94.2832 57.1742C94.7258 56.801 95.0191 56.1544 95.1632 55.2344H96.6529Z" fill="#FFB1B1"/>
<path d="M98.0809 54.552C98.0809 53.7393 98.2404 53.0084 98.5595 52.3593C98.8837 51.7101 99.3314 51.2092 99.9026 50.8565C100.479 50.5038 101.135 50.3275 101.871 50.3275C103.008 50.3275 103.927 50.7185 104.627 51.5005C105.332 52.2826 105.684 53.3227 105.684 54.621V54.7207C105.684 55.5283 105.527 56.2541 105.213 56.8981C104.904 57.5371 104.459 58.0354 103.878 58.3932C103.301 58.751 102.638 58.9299 101.886 58.9299C100.754 58.9299 99.8357 58.5389 99.1307 57.7568C98.4308 56.9748 98.0809 55.9398 98.0809 54.6517V54.552ZM99.5166 54.7207C99.5166 55.6407 99.7302 56.3793 100.157 56.9365C100.59 57.4936 101.166 57.7722 101.886 57.7722C102.612 57.7722 103.188 57.4911 103.615 56.9288C104.042 56.3614 104.256 55.5692 104.256 54.552C104.256 53.6422 104.037 52.9062 103.6 52.3439C103.168 51.7766 102.591 51.4929 101.871 51.4929C101.166 51.4929 100.597 51.7714 100.165 52.3286C99.7328 52.8857 99.5166 53.6831 99.5166 54.7207Z" fill="#FFB1B1"/>
<path d="M108.818 50.4808L108.857 51.4009C109.469 50.6853 110.295 50.3275 111.334 50.3275C112.502 50.3275 113.297 50.7722 113.719 51.6616C113.997 51.2629 114.358 50.9409 114.8 50.6955C115.248 50.4502 115.775 50.3275 116.382 50.3275C118.214 50.3275 119.146 51.291 119.177 53.218V58.7766H117.749V53.3023C117.749 52.7094 117.612 52.2673 117.34 51.9759C117.067 51.6794 116.609 51.5312 115.966 51.5312C115.436 51.5312 114.996 51.6897 114.646 52.0066C114.296 52.3184 114.093 52.7401 114.036 53.2716V58.7766H112.6V53.3406C112.6 52.1344 112.006 51.5312 110.817 51.5312C109.881 51.5312 109.24 51.9273 108.895 52.7196V58.7766H107.467V50.4808H108.818Z" fill="#FFB1B1"/>
<path d="M122.89 58.7766H121.462V50.4808H122.89V58.7766ZM121.346 48.2804C121.346 48.0504 121.415 47.8562 121.554 47.6977C121.698 47.5392 121.909 47.46 122.187 47.46C122.465 47.46 122.676 47.5392 122.82 47.6977C122.964 47.8562 123.036 48.0504 123.036 48.2804C123.036 48.5104 122.964 48.7021 122.82 48.8554C122.676 49.0088 122.465 49.0854 122.187 49.0854C121.909 49.0854 121.698 49.0088 121.554 48.8554C121.415 48.7021 121.346 48.5104 121.346 48.2804Z" fill="#FFB1B1"/>
<path d="M124.835 54.5597C124.835 53.287 125.138 52.2647 125.746 51.4929C126.353 50.716 127.148 50.3275 128.131 50.3275C129.108 50.3275 129.883 50.6597 130.454 51.3242V47H131.882V58.7766H130.57L130.5 57.8872C129.929 58.5823 129.134 58.9299 128.115 58.9299C127.148 58.9299 126.358 58.5363 125.746 57.7492C125.138 56.962 124.835 55.9346 124.835 54.667V54.5597ZM126.263 54.7207C126.263 55.6612 126.458 56.3972 126.849 56.9288C127.24 57.4604 127.781 57.7262 128.47 57.7262C129.376 57.7262 130.037 57.3224 130.454 56.5148V52.7043C130.027 51.9222 129.371 51.5312 128.486 51.5312C127.786 51.5312 127.24 51.7996 126.849 52.3363C126.458 52.8729 126.263 53.6678 126.263 54.7207Z" fill="#FFB1B1"/>
<path d="M139.261 58.7766C139.179 58.613 139.112 58.3216 139.061 57.9025C138.397 58.5874 137.604 58.9299 136.683 58.9299C135.86 58.9299 135.183 58.6999 134.653 58.2399C134.128 57.7747 133.866 57.1869 133.866 56.4765C133.866 55.6126 134.195 54.943 134.854 54.4677C135.518 53.9872 136.449 53.747 137.648 53.747H139.038V53.0953C139.038 52.5995 138.888 52.2059 138.59 51.9146C138.291 51.6181 137.851 51.4699 137.27 51.4699C136.76 51.4699 136.333 51.5977 135.989 51.8532C135.644 52.1088 135.471 52.418 135.471 52.7809H134.036C134.036 52.3669 134.182 51.9682 134.476 51.5849C134.774 51.1964 135.175 50.8897 135.68 50.6648C136.189 50.4399 136.748 50.3275 137.355 50.3275C138.317 50.3275 139.071 50.5677 139.616 51.0482C140.162 51.5235 140.445 52.1804 140.466 53.0186V56.8368C140.466 57.5984 140.563 58.2041 140.759 58.6539V58.7766H139.261ZM136.892 57.6955C137.339 57.6955 137.764 57.5805 138.165 57.3505C138.567 57.1205 138.857 56.8215 139.038 56.4535V54.7514H137.918C136.169 54.7514 135.294 55.2599 135.294 56.2771C135.294 56.7218 135.443 57.0694 135.742 57.3198C136.04 57.5703 136.423 57.6955 136.892 57.6955Z" fill="#FFB1B1"/>
<path d="M148.439 58.7766H146.957V47.6134H148.439V58.7766Z" fill="#FFB1B1"/>
<path d="M152.87 48.4721V50.4808H154.429V51.5772H152.87V56.7218C152.87 57.054 152.939 57.3045 153.078 57.4732C153.217 57.6367 153.454 57.7185 153.788 57.7185C153.953 57.7185 154.179 57.6878 154.468 57.6265V58.7766C154.092 58.8788 153.727 58.9299 153.372 58.9299C152.733 58.9299 152.252 58.7382 151.928 58.3549C151.604 57.9715 151.442 57.4272 151.442 56.7218V51.5772H149.921V50.4808H151.442V48.4721H152.87Z" fill="#FFB1B1"/>
<path d="M161.26 58.7766C161.178 58.613 161.111 58.3216 161.06 57.9025C160.396 58.5874 159.603 58.9299 158.682 58.9299C157.859 58.9299 157.182 58.6999 156.652 58.2399C156.127 57.7747 155.865 57.1869 155.865 56.4765C155.865 55.6126 156.194 54.943 156.853 54.4677C157.517 53.9872 158.448 53.747 159.647 53.747H161.036V53.0953C161.036 52.5995 160.887 52.2059 160.589 51.9146C160.29 51.6181 159.85 51.4699 159.269 51.4699C158.759 51.4699 158.332 51.5977 157.987 51.8532C157.643 52.1088 157.47 52.418 157.47 52.7809H156.035C156.035 52.3669 156.181 51.9682 156.475 51.5849C156.773 51.1964 157.174 50.8897 157.679 50.6648C158.188 50.4399 158.747 50.3275 159.354 50.3275C160.316 50.3275 161.07 50.5677 161.615 51.0482C162.161 51.5235 162.444 52.1804 162.464 53.0186V56.8368C162.464 57.5984 162.562 58.2041 162.758 58.6539V58.7766H161.26ZM158.891 57.6955C159.338 57.6955 159.763 57.5805 160.164 57.3505C160.566 57.1205 160.856 56.8215 161.036 56.4535V54.7514H159.917C158.168 54.7514 157.293 55.2599 157.293 56.2771C157.293 56.7218 157.442 57.0694 157.74 57.3198C158.039 57.5703 158.422 57.6955 158.891 57.6955Z" fill="#FFB1B1"/>
<path d="M166.254 58.7766H164.826V47H166.254V58.7766Z" fill="#FFB1B1"/>
<path d="M170.098 58.7766H168.67V50.4808H170.098V58.7766ZM168.555 48.2804C168.555 48.0504 168.624 47.8562 168.763 47.6977C168.907 47.5392 169.118 47.46 169.396 47.46C169.674 47.46 169.885 47.5392 170.029 47.6977C170.173 47.8562 170.245 48.0504 170.245 48.2804C170.245 48.5104 170.173 48.7021 170.029 48.8554C169.885 49.0088 169.674 49.0854 169.396 49.0854C169.118 49.0854 168.907 49.0088 168.763 48.8554C168.624 48.7021 168.555 48.5104 168.555 48.2804Z" fill="#FFB1B1"/>
<path d="M177.547 58.7766C177.465 58.613 177.398 58.3216 177.347 57.9025C176.683 58.5874 175.89 58.9299 174.969 58.9299C174.146 58.9299 173.469 58.6999 172.939 58.2399C172.414 57.7747 172.152 57.1869 172.152 56.4765C172.152 55.6126 172.481 54.943 173.14 54.4677C173.804 53.9872 174.735 53.747 175.934 53.747H177.323V53.0953C177.323 52.5995 177.174 52.2059 176.876 51.9146C176.577 51.6181 176.137 51.4699 175.556 51.4699C175.046 51.4699 174.619 51.5977 174.274 51.8532C173.93 52.1088 173.757 52.418 173.757 52.7809H172.322C172.322 52.3669 172.468 51.9682 172.762 51.5849C173.06 51.1964 173.461 50.8897 173.966 50.6648C174.475 50.4399 175.033 50.3275 175.641 50.3275C176.603 50.3275 177.357 50.5677 177.902 51.0482C178.448 51.5235 178.731 52.1804 178.751 53.0186V56.8368C178.751 57.5984 178.849 58.2041 179.045 58.6539V58.7766H177.547ZM175.178 57.6955C175.625 57.6955 176.05 57.5805 176.451 57.3505C176.853 57.1205 177.143 56.8215 177.323 56.4535V54.7514H176.204C174.455 54.7514 173.58 55.2599 173.58 56.2771C173.58 56.7218 173.729 57.0694 174.027 57.3198C174.326 57.5703 174.709 57.6955 175.178 57.6955Z" fill="#FFB1B1"/>
<path d="M182.341 50.4808L182.387 51.5235C183.025 50.7262 183.859 50.3275 184.888 50.3275C186.653 50.3275 187.543 51.3165 187.559 53.2946V58.7766H186.131V53.287C186.126 52.6889 185.987 52.2468 185.714 51.9606C185.446 51.6743 185.027 51.5312 184.456 51.5312C183.993 51.5312 183.586 51.6539 183.236 51.8992C182.886 52.1446 182.613 52.4666 182.418 52.8653V58.7766H180.99V50.4808H182.341Z" fill="#FFB1B1"/>
<path d="M194.869 58.7766C194.786 58.613 194.719 58.3216 194.668 57.9025C194.004 58.5874 193.212 58.9299 192.29 58.9299C191.467 58.9299 190.79 58.6999 190.26 58.2399C189.735 57.7747 189.473 57.1869 189.473 56.4765C189.473 55.6126 189.802 54.943 190.461 54.4677C191.125 53.9872 192.056 53.747 193.255 53.747H194.645V53.0953C194.645 52.5995 194.495 52.2059 194.197 51.9146C193.899 51.6181 193.459 51.4699 192.877 51.4699C192.368 51.4699 191.94 51.5977 191.596 51.8532C191.251 52.1088 191.079 52.418 191.079 52.7809H189.643C189.643 52.3669 189.789 51.9682 190.083 51.5849C190.381 51.1964 190.783 50.8897 191.287 50.6648C191.796 50.4399 192.355 50.3275 192.962 50.3275C193.924 50.3275 194.678 50.5677 195.224 51.0482C195.769 51.5235 196.052 52.1804 196.073 53.0186V56.8368C196.073 57.5984 196.17 58.2041 196.366 58.6539V58.7766H194.869ZM192.499 57.6955C192.947 57.6955 193.371 57.5805 193.772 57.3505C194.174 57.1205 194.465 56.8215 194.645 56.4535V54.7514H193.525C191.776 54.7514 190.901 55.2599 190.901 56.2771C190.901 56.7218 191.05 57.0694 191.349 57.3198C191.647 57.5703 192.031 57.6955 192.499 57.6955Z" fill="#FFB1B1"/>
<path d="M198.265 61L197.454 60.448C197.938 59.7784 198.19 59.0884 198.211 58.3779V57.0975H199.608V58.2092C199.608 58.7254 199.479 59.2417 199.222 59.7579C198.97 60.2742 198.651 60.6882 198.265 61Z" fill="#FFB1B1"/>
<path d="M210.198 56.5761C210.198 56.1928 210.052 55.8963 209.758 55.6867C209.47 55.4721 208.963 55.2881 208.238 55.1347C207.517 54.9814 206.943 54.7974 206.516 54.5827C206.094 54.368 205.781 54.1124 205.575 53.816C205.374 53.5195 205.274 53.1668 205.274 52.7579C205.274 52.0781 205.562 51.5031 206.138 51.0329C206.72 50.5626 207.461 50.3275 208.361 50.3275C209.308 50.3275 210.075 50.5703 210.661 51.0559C211.253 51.5414 211.549 52.1625 211.549 52.9189H210.113C210.113 52.5305 209.946 52.1957 209.612 51.9146C209.282 51.6334 208.866 51.4929 208.361 51.4929C207.841 51.4929 207.435 51.6053 207.142 51.8302C206.848 52.0551 206.702 52.349 206.702 52.7119C206.702 53.0544 206.838 53.3125 207.111 53.4863C207.383 53.6601 207.875 53.8262 208.585 53.9847C209.3 54.1431 209.879 54.3322 210.322 54.552C210.764 54.7718 211.091 55.0376 211.302 55.3494C211.518 55.6561 211.626 56.0318 211.626 56.4765C211.626 57.2176 211.328 57.8131 210.731 58.2629C210.134 58.7076 209.36 58.9299 208.408 58.9299C207.739 58.9299 207.147 58.8123 206.632 58.5772C206.118 58.3421 205.714 58.015 205.42 57.5958C205.132 57.1716 204.988 56.7141 204.988 56.2234H206.416C206.442 56.6988 206.632 57.077 206.987 57.3582C207.347 57.6342 207.821 57.7722 208.408 57.7722C208.948 57.7722 209.38 57.6648 209.704 57.4502C210.034 57.2304 210.198 56.939 210.198 56.5761Z" fill="#FFB1B1"/>
<path d="M215.038 58.7766H213.61V50.4808H215.038V58.7766ZM213.494 48.2804C213.494 48.0504 213.564 47.8562 213.703 47.6977C213.847 47.5392 214.058 47.46 214.336 47.46C214.614 47.46 214.825 47.5392 214.969 47.6977C215.113 47.8562 215.185 48.0504 215.185 48.2804C215.185 48.5104 215.113 48.7021 214.969 48.8554C214.825 49.0088 214.614 49.0854 214.336 49.0854C214.058 49.0854 213.847 49.0088 213.703 48.8554C213.564 48.7021 213.494 48.5104 213.494 48.2804Z" fill="#FFB1B1"/>
<path d="M218.674 50.4808L218.712 51.4009C219.325 50.6853 220.151 50.3275 221.19 50.3275C222.358 50.3275 223.153 50.7722 223.575 51.6616C223.853 51.2629 224.213 50.9409 224.656 50.6955C225.104 50.4502 225.631 50.3275 226.238 50.3275C228.07 50.3275 229.002 51.291 229.032 53.218V58.7766H227.604V53.3023C227.604 52.7094 227.468 52.2673 227.195 51.9759C226.923 51.6794 226.465 51.5312 225.821 51.5312C225.291 51.5312 224.851 51.6897 224.501 52.0066C224.152 52.3184 223.948 52.7401 223.892 53.2716V58.7766H222.456V53.3406C222.456 52.1344 221.862 51.5312 220.673 51.5312C219.736 51.5312 219.096 51.9273 218.751 52.7196V58.7766H217.323V50.4808H218.674Z" fill="#FFB1B1"/>
<path d="M231.225 58.0329C231.225 57.7875 231.297 57.5831 231.441 57.4195C231.59 57.2559 231.811 57.1742 232.105 57.1742C232.398 57.1742 232.619 57.2559 232.768 57.4195C232.923 57.5831 233 57.7875 233 58.0329C233 58.268 232.923 58.4648 232.768 58.6232C232.619 58.7817 232.398 58.8609 232.105 58.8609C231.811 58.8609 231.59 58.7817 231.441 58.6232C231.297 58.4648 231.225 58.268 231.225 58.0329Z" fill="#FFB1B1"/>
<path fill-rule="evenodd" clip-rule="evenodd" d="M32 19.3863C28.0372 19.3863 24.2897 18.7619 21.4481 17.6282C18.1848 16.3263 16.3875 14.4282 16.3876 12.2834C16.3876 10.1388 18.1849 8.24066 21.4482 6.93878C23.4813 6.12774 25.9794 5.57907 28.6871 5.33148C28.252 4.7631 28.2921 3.94524 28.8103 3.42455C29.3735 2.85848 30.2867 2.85848 30.85 3.42455L33.0197 5.60545C33.583 6.17152 33.583 7.0894 33.0197 7.65546L30.8499 9.83622C30.5683 10.1193 30.1991 10.2608 29.83 10.2608C29.4609 10.2608 29.0918 10.1193 28.8101 9.83622C28.3867 9.41048 28.2818 8.78585 28.4953 8.26153C26.2425 8.49927 24.1862 8.9656 22.5124 9.63342C20.1207 10.5875 19.2722 11.6573 19.2722 12.2834C19.2722 12.9095 20.1207 13.9793 22.5124 14.9334C25.0234 15.9352 28.3929 16.4869 32 16.4869C35.6071 16.4869 38.9766 15.9352 41.4877 14.9334C43.8793 13.9793 44.7279 12.9096 44.7279 12.2834C44.7279 11.2673 42.7568 9.76273 38.9897 8.85311C38.2152 8.66611 37.7382 7.88348 37.9242 7.10505C38.1102 6.32662 38.8892 5.8471 39.6635 6.03424C44.7153 7.25392 47.6125 9.53181 47.6125 12.2836C47.6125 14.4282 45.8152 16.3263 42.552 17.6282C39.7103 18.7619 35.9628 19.3863 32 19.3863ZM54.0449 25.9316C62.2728 28.5632 64 31.8933 64 34.2235C64 34.2615 63.9994 34.2998 63.9986 34.3382C63.9677 42.5286 60.6348 50.2209 54.6036 56.0091C48.5626 61.807 40.535 65 32 65C23.465 65 15.4376 61.807 9.39636 56.0091C3.36525 50.2209 0.0323082 42.5286 0.00144233 34.3382C0.000576933 34.2998 0 34.2615 0 34.2235C0 31.8933 1.72719 28.5632 9.95526 25.9314C15.8645 24.0416 23.6935 23.0008 32.0001 23.0008C37.5784 23.0008 42.9402 23.4709 47.651 24.3515L51.2414 18.8698C51.6795 18.2011 52.5738 18.0158 53.2392 18.456C53.9045 18.8963 54.0889 19.7952 53.6508 20.4639L50.6818 24.9969C51.8589 25.2804 52.9833 25.5921 54.0449 25.9316ZM61.1153 34.2235C61.1153 32.3804 58.071 30.2618 53.1701 28.6943C51.8716 28.279 50.4716 27.9072 48.9899 27.5802L43.0643 36.6274C47.4948 37.1688 51.5381 38.0324 54.8448 39.1683C58.7542 37.6827 61.1153 35.8463 61.1153 34.2235ZM14.3212 40.7103C19.4077 41.9025 25.5414 42.5469 32 42.5469C33.2755 42.5469 34.5381 42.5215 35.7825 42.472L38.0137 39.0656C36.0509 38.9376 34.0371 38.871 31.9996 38.871C25.5818 38.871 19.3965 39.5261 14.3212 40.7103ZM49.6789 40.7103C47.1254 40.1145 44.2905 39.6531 41.2866 39.3413L39.3765 42.2577C43.0908 41.96 46.5792 41.4368 49.6789 40.7103ZM31.9999 25.9001C23.9821 25.9001 16.4638 26.8925 10.8297 28.6943C5.92899 30.2616 2.88466 32.3804 2.88466 34.2235C2.88466 35.8465 5.2459 37.6828 9.15534 39.1683C15.077 37.134 23.3596 35.9717 31.9994 35.9717C34.6627 35.9717 37.2912 36.083 39.828 36.2953L45.9243 26.9876C41.688 26.2772 36.9391 25.9001 31.9999 25.9001ZM3.41054 39.5064C5.9962 52.3603 17.8318 62.1008 32 62.1008C46.1682 62.1008 58.0038 52.3605 60.5895 39.5064C59.0919 40.547 56.9831 41.5758 54.0449 42.5154C48.1358 44.4053 40.3067 45.4461 32 45.4461C23.6933 45.4461 15.8643 44.4053 9.95512 42.5154C7.01694 41.5757 4.90811 40.5469 3.41054 39.5064Z" fill="#FFB84D"/>
</svg>
